<?xml version="1.0" encoding="utf-8"?>
<!-- Generator: Adobe Illustrator 16.0.0, SVG Export Plug-In . SVG Version: 6.00 Build 0)  -->
<!DOCTYPE svg PUBLIC "-//W3C//DTD SVG 1.1//EN" "http://www.w3.org/Graphics/SVG/1.1/DTD/svg11.dtd">
<svg version="1.1" id="Layer_1" xmlns="http://www.w3.org/2000/svg" xmlns:xlink="http://www.w3.org/1999/xlink" x="0px" y="0px"
	 width="409.48px" height="196.49px" viewBox="0 0 409.48 196.49" enable-background="new 0 0 409.48 196.49" xml:space="preserve">
<circle opacity="0.7" fill="#C1C7C1" cx="86.17" cy="95.72" r="63.671"/>
<path fill="#FFFFFF" stroke="#FFFFFF" stroke-width="0.25" stroke-miterlimit="10" d="M126.871,66.276
	c0-10.425-3.78-18.73-11.335-24.919c-7.555-6.188-17.249-9.283-29.079-9.283c-0.1,0-0.2,0.002-0.296,0.005
	c-0.098-0.003-0.197-0.005-0.296-0.005c-11.831,0-21.525,3.095-29.082,9.283C49.227,47.545,45.45,55.851,45.45,66.276v60.486h0.049
	l-0.018,0.006c2.877,20.186,20.148,31.562,40.526,32.813v0.023c0.052-0.003,0.102-0.008,0.153-0.011
	c0.05,0.003,0.1,0.007,0.153,0.011v-0.023c20.376-1.251,37.648-12.627,40.523-32.813l-0.017-0.006h0.051V66.276z M85.479,41.656
	c5.15,0,9.974,1.113,14.142,3.047c0.001,0.001,0.005,0.001,0.006,0.001c1.775,0.698,3.586,1.797,5.294,3.17
	c4.273,3.238,7.311,7.525,8.478,12.357c0.067,0.272,0.129,0.544,0.182,0.816c0.002,0.014,0.006,0.033,0.008,0.048
	c0.011,0.059,0.021,0.119,0.033,0.178c0.259,1.464,0.715,4.796,1.167,8.855v26.09c-0.137,0.04-32.554-5.512-43.089-11.415
	c-8.75-3.925-14.677-11.47-14.677-20.136C57.024,51.959,69.765,41.656,85.479,41.656 M93.233,148.973
	c-13.786,2.282-32.069-4.2-34.932-19.579c0.004,0.015-0.011-0.062,0,0c-2.422-12.558-1.254-25.839-1.264-38.558
	c7.478,4.901,17.941,6.563,26.479,8.553c13.307,3.102,31.27,7.945,33.051,24.192C118.061,137.215,105.487,146.946,93.233,148.973"/>
<rect x="167.992" y="44.557" fill="none" width="212.989" height="58.938"/>
<text transform="matrix(1 0 0 1 167.9922 96.356)" fill="#FFFFFF" font-family="'Lato-Semibold'" font-size="70">O’Neil</text>
<rect x="167.992" y="105.053" fill="none" width="274.486" height="58.938"/>
<text transform="matrix(1 0 0 1 167.9922 144.3916)" fill="#FFFFFF" font-family="'Lato-Light'" font-size="54">Solicitors</text>
</svg>
